<svg width="24" height="24" viewBox="0 0 24 24" fill="none" xmlns="http://www.w3.org/2000/svg">
<path fill-rule="evenodd" clip-rule="evenodd" d="M16.7387 8.17417C20.1967 8.17417 23 10.9774 23 14.4354C23 15.203 22.8619 15.9382 22.6092 16.6178L22.6087 19.5654C22.6087 19.9514 22.3166 20.2692 21.9414 20.3099L21.8598 20.3143L18.8973 20.3146C18.2244 20.5618 17.4974 20.6967 16.7387 20.6967C14.9161 20.6967 13.2754 19.9179 12.1311 18.6749C14.8427 17.498 16.7387 14.7967 16.7387 11.6526C16.7387 10.4209 16.4477 9.25707 15.9307 8.22625C16.195 8.19176 16.4648 8.17417 16.7387 8.17417ZM8.37376 4C12.4462 4 15.7475 7.30134 15.7475 11.3738C15.7475 15.4462 12.4462 18.7475 8.37376 18.7475C7.57949 18.7475 6.81456 18.6219 6.09773 18.3896L5.83121 18.2974L2.38258 18.2972L2.28834 18.2924C1.85454 18.2484 1.50967 17.9035 1.46562 17.4697L1.46086 17.3755L1.46037 13.9442C1.16268 13.1438 1 12.2778 1 11.3738C1 7.30134 4.30134 4 8.37376 4ZM5.17417 10.9569C4.78995 10.9569 4.47847 11.2684 4.47847 11.6526C4.47847 12.0369 4.78995 12.3483 5.17417 12.3483C5.55839 12.3483 5.86986 12.0369 5.86986 11.6526C5.86986 11.2684 5.55839 10.9569 5.17417 10.9569ZM8.65264 10.9569C8.26842 10.9569 7.95695 11.2684 7.95695 11.6526C7.95695 12.0369 8.26842 12.3483 8.65264 12.3483C9.03687 12.3483 9.34834 12.0369 9.34834 11.6526C9.34834 11.2684 9.03687 10.9569 8.65264 10.9569ZM12.1311 10.9569C11.7469 10.9569 11.4354 11.2684 11.4354 11.6526C11.4354 12.0369 11.7469 12.3483 12.1311 12.3483C12.5153 12.3483 12.8268 12.0369 12.8268 11.6526C12.8268 11.2684 12.5153 10.9569 12.1311 10.9569Z" fill="black"/>
</svg>
