<svg width="24" height="24" viewBox="0 0 24 24" fill="none" xmlns="http://www.w3.org/2000/svg">
<path fill-rule="evenodd" clip-rule="evenodd" d="M11.4429 3.05185C11.8167 2.98272 12.1833 2.98272 12.5571 3.05185C14.0553 3.3284 18.1265 4.10517 19.1898 4.58642C19.6902 4.81281 20 5.28321 20 5.80242V13.5295C20 15.384 18.9847 17.1097 17.3062 18.1047L12.7811 20.7875C12.304 21.0708 11.696 21.0708 11.2189 20.7875L6.69527 18.1047C5.01527 17.1097 4 15.384 4 13.5295V5.80242C4 5.28321 4.30982 4.81281 4.81164 4.58642C5.87345 4.10517 9.94473 3.3284 11.4429 3.05185ZM16.297 8.19421C15.9608 8.02633 15.5328 8.12889 15.3411 8.42329L11.3989 14.475L8.74294 11.7366L8.67011 11.6718C8.4132 11.4746 8.02331 11.4666 7.75512 11.6661C7.4601 11.8854 7.42405 12.2727 7.67459 12.531L10.9786 15.9375L11.05 16.0014C11.3755 16.2536 11.8979 16.1877 12.1215 15.8443L16.5586 9.03124L16.6002 8.95614C16.7293 8.67582 16.6052 8.3481 16.297 8.19421Z" fill="black"/>
</svg>
